<svg width="32" height="32" viewBox="0 0 32 32" fill="none" xmlns="http://www.w3.org/2000/svg">
<g clip-path="url(#clip0_16_377)">
<path d="M22.0513 8.52295L16.0642 13.1954L9.94019 8.52295V8.52421L9.94759 8.53053V15.0732L15.9951 19.8466L22.0513 15.2575V8.52295Z" fill="#6D75CF"/>
<path d="M23.6235 7.38639L22.0512 8.52292V15.2575L26.9987 11.459V9.17074C26.9987 9.17074 26.3981 5.90258 23.6235 7.38639Z" fill="#5A60A8"/>
<path d="M22.0512 15.2575V23.9924H25.8432C25.8432 23.9924 26.9223 23.8813 26.9999 22.6513V11.459L22.0512 15.2575Z" fill="#3D4277"/>
<path d="M9.94787 24.0001V15.0732L9.94019 15.0669L9.94787 24.0001Z" fill="#5A60A8"/>
<path d="M9.94014 8.52404L8.37646 7.39382C5.60179 5.91001 5 9.17692 5 9.17692V11.4651L9.94014 15.0667V8.52404Z" fill="#5A60A8"/>
<path d="M9.94019 8.52441V15.0671L9.94787 15.0734V8.53073L9.94019 8.52441Z" fill="#5A60A8"/>
<path d="M5 11.4668V22.6591C5.07646 23.8904 6.15673 24.0003 6.15673 24.0003H9.94877L9.94013 15.0671L5 11.4668Z" fill="#6B72C4"/>
</g>
<defs>
<clipPath id="clip0_16_377">
<rect width="32" height="32" fill="white"/>
</clipPath>
</defs>
</svg>
