<svg width="29" height="29" viewBox="0 0 29 29" fill="none" xmlns="http://www.w3.org/2000/svg">
<rect x="1.8125" y="1.8125" width="25.375" height="25.375" rx="6" fill="url(#paint0_radial_16_370)"/>
<rect x="1.8125" y="1.8125" width="25.375" height="25.375" rx="6" fill="url(#paint1_radial_16_370)"/>
<rect x="1.8125" y="1.8125" width="25.375" height="25.375" rx="6" fill="url(#paint2_linear_16_370)"/>
<path d="M20.8438 9.51562C20.8438 10.2664 20.2351 10.875 19.4844 10.875C18.7336 10.875 18.125 10.2664 18.125 9.51562C18.125 8.76486 18.7336 8.15625 19.4844 8.15625C20.2351 8.15625 20.8438 8.76486 20.8438 9.51562Z" fill="white"/>
<path fill-rule="evenodd" clip-rule="evenodd" d="M14.5 19.0312C17.0025 19.0312 19.0312 17.0025 19.0312 14.5C19.0312 11.9975 17.0025 9.96875 14.5 9.96875C11.9975 9.96875 9.96875 11.9975 9.96875 14.5C9.96875 17.0025 11.9975 19.0312 14.5 19.0312ZM14.5 17.2188C16.0015 17.2188 17.2188 16.0015 17.2188 14.5C17.2188 12.9985 16.0015 11.7812 14.5 11.7812C12.9985 11.7812 11.7812 12.9985 11.7812 14.5C11.7812 16.0015 12.9985 17.2188 14.5 17.2188Z" fill="white"/>
<path fill-rule="evenodd" clip-rule="evenodd" d="M5.4375 14.1375C5.4375 11.0922 5.4375 9.56957 6.03015 8.40643C6.55146 7.3833 7.3833 6.55146 8.40643 6.03015C9.56957 5.4375 11.0922 5.4375 14.1375 5.4375H14.8625C17.9078 5.4375 19.4304 5.4375 20.5936 6.03015C21.6167 6.55146 22.4485 7.3833 22.9698 8.40643C23.5625 9.56957 23.5625 11.0922 23.5625 14.1375V14.8625C23.5625 17.9078 23.5625 19.4304 22.9698 20.5936C22.4485 21.6167 21.6167 22.4485 20.5936 22.9698C19.4304 23.5625 17.9078 23.5625 14.8625 23.5625H14.1375C11.0922 23.5625 9.56957 23.5625 8.40643 22.9698C7.3833 22.4485 6.55146 21.6167 6.03015 20.5936C5.4375 19.4304 5.4375 17.9078 5.4375 14.8625V14.1375ZM14.1375 7.25H14.8625C16.4151 7.25 17.4705 7.25141 18.2862 7.31806C19.0809 7.38299 19.4872 7.50066 19.7707 7.6451C20.4528 7.99264 21.0074 8.5472 21.3549 9.22928C21.4993 9.51276 21.617 9.91913 21.6819 10.7138C21.7486 11.5295 21.75 12.5849 21.75 14.1375V14.8625C21.75 16.4151 21.7486 17.4705 21.6819 18.2862C21.617 19.0809 21.4993 19.4872 21.3549 19.7707C21.0074 20.4528 20.4528 21.0074 19.7707 21.3549C19.4872 21.4993 19.0809 21.617 18.2862 21.6819C17.4705 21.7486 16.4151 21.75 14.8625 21.75H14.1375C12.5849 21.75 11.5295 21.7486 10.7138 21.6819C9.91913 21.617 9.51276 21.4993 9.22928 21.3549C8.5472 21.0074 7.99264 20.4528 7.6451 19.7707C7.50066 19.4872 7.38299 19.0809 7.31806 18.2862C7.25141 17.4705 7.25 16.4151 7.25 14.8625V14.1375C7.25 12.5849 7.25141 11.5295 7.31806 10.7138C7.38299 9.91913 7.50066 9.51276 7.6451 9.22928C7.99264 8.5472 8.5472 7.99264 9.22928 7.6451C9.51276 7.50066 9.91913 7.38299 10.7138 7.31806C11.5295 7.25141 12.5849 7.25 14.1375 7.25Z" fill="white"/>
<defs>
<radialGradient id="paint0_radial_16_370" cx="0" cy="0" r="1" gradientUnits="userSpaceOnUse" gradientTransform="translate(10.875 20.8438) rotate(-55.3758) scale(23.1271)">
<stop stop-color="#B13589"/>
<stop offset="0.79309" stop-color="#C62F94"/>
<stop offset="1" stop-color="#8A3AC8"/>
</radialGradient>
<radialGradient id="paint1_radial_16_370" cx="0" cy="0" r="1" gradientUnits="userSpaceOnUse" gradientTransform="translate(9.96875 28.0937) rotate(-65.1363) scale(20.476)">
<stop stop-color="#E0E8B7"/>
<stop offset="0.444662" stop-color="#FB8A2E"/>
<stop offset="0.71474" stop-color="#E2425C"/>
<stop offset="1" stop-color="#E2425C" stop-opacity="0"/>
</radialGradient>
<linearGradient id="paint2_linear_16_370" x1="-34.4375" y1="7.70313" x2="35.411" y2="-1.77008" gradientUnits="userSpaceOnUse">
<stop offset="0.156701" stop-color="#6B72C4"/>
<stop offset="0.467799" stop-color="#5A60A8"/>
<stop offset="1" stop-color="#989EDB"/>
</linearGradient>
</defs>
</svg>
