<svg width="22" height="18" viewBox="0 0 22 18" fill="none" xmlns="http://www.w3.org/2000/svg">
<path d="M0 6.17143C0 4.01123 0 2.93112 0.513826 2.10604C0.965801 1.38027 1.687 0.790201 2.57404 0.420403C3.58249 0 4.90261 0 7.54286 0H14.4571C17.0974 0 18.4175 0 19.426 0.420403C20.313 0.790201 21.0342 1.38027 21.4862 2.10604C22 2.93112 22 4.01123 22 6.17143V11.8286C22 13.9888 22 15.0689 21.4862 15.894C21.0342 16.6197 20.313 17.2098 19.426 17.5796C18.4175 18 17.0974 18 14.4571 18H7.54286C4.90261 18 3.58249 18 2.57404 17.5796C1.687 17.2098 0.965801 16.6197 0.513826 15.894C0 15.0689 0 13.9888 0 11.8286V6.17143Z" fill="url(#paint0_linear_16_378)"/>
<path d="M11 13.4998C14.9054 13.4998 18.0714 11.3412 18.0714 8.67836C18.0714 6.01556 14.9054 3.85693 11 3.85693C7.09456 3.85693 3.92858 6.01556 3.92858 8.67836C3.92858 10.3662 5.20056 11.8514 7.12659 12.7128C7.06212 13.1415 6.8683 13.7137 6.28572 14.1426C7.38739 13.9804 8.26661 13.6544 8.92342 13.2886C9.58005 13.4259 10.2774 13.4998 11 13.4998Z" fill="white"/>
<defs>
<linearGradient id="paint0_linear_16_378" x1="2.02453e-07" y1="10" x2="21" y2="10.5" gradientUnits="userSpaceOnUse">
<stop stop-color="#5A60A8"/>
<stop offset="1" stop-color="#989EDB"/>
</linearGradient>
</defs>
</svg>
