<svg width="29" height="24" viewBox="0 0 29 24" fill="none" xmlns="http://www.w3.org/2000/svg">
<path d="M9.10263 24C5.75209 24 2.62882 23.0182 0 21.3241C2.23196 21.4696 6.17086 21.1212 8.62085 18.7667C4.93526 18.5963 3.27313 15.7485 3.05633 14.5314C3.36948 14.6531 4.86299 14.7992 5.7061 14.4584C1.46647 13.3874 0.816068 9.63895 0.960601 8.49493C1.75553 9.05477 3.10451 9.24949 3.63446 9.20081C-0.316107 6.35294 1.10513 2.06897 1.80371 1.14402C4.63878 5.10122 8.88767 7.32373 14.1441 7.44735C14.045 7.00942 13.9927 6.55348 13.9927 6.08519C13.9927 2.72443 16.6889 0 20.0149 0C21.7526 0 23.3185 0.743743 24.4177 1.9334C25.5789 1.65924 27.3266 1.01746 28.181 0.462475C27.7503 2.02028 26.4096 3.31982 25.5986 3.80147C25.6053 3.81786 25.592 3.78501 25.5986 3.80147C26.311 3.69291 28.2385 3.31969 29 2.79919C28.6234 3.67435 27.202 5.12946 26.0355 5.94409C26.2525 15.5875 18.9292 24 9.10263 24Z" fill="url(#paint0_linear_16_369)"/>
<defs>
<linearGradient id="paint0_linear_16_369" x1="3.05263" y1="12.3871" x2="22.5626" y2="18.4206" gradientUnits="userSpaceOnUse">
<stop stop-color="#5A60A8"/>
<stop offset="1" stop-color="#989EDB"/>
</linearGradient>
</defs>
</svg>
