<svg xmlns="http://www.w3.org/2000/svg" xmlns:xlink="http://www.w3.org/1999/xlink" width="500" zoomAndPan="magnify" viewBox="0 0 375 374.999991" height="500" preserveAspectRatio="xMidYMid meet" version="1.0"><defs><clipPath id="052ed0fcbb"><path d="M 45.175781 5.324219 L 330 5.324219 L 330 369.824219 L 45.175781 369.824219 Z M 45.175781 5.324219 " clip-rule="nonzero"/></clipPath></defs><g clip-path="url(#052ed0fcbb)"><path fill="#7484dd" d="M 187.460938 5.324219 C 265.992188 5.324219 329.65625 68.984375 329.65625 147.515625 C 329.65625 226.046875 265.992188 289.710938 187.460938 289.710938 C 108.929688 289.710938 45.265625 226.046875 45.265625 147.515625 C 45.265625 68.984375 108.929688 5.324219 187.460938 5.324219 Z M 294.214844 258.980469 C 274.464844 277.902344 249.699219 291.621094 222.109375 297.953125 L 246.410156 354.367188 L 272.644531 312.09375 L 321.386719 322.074219 Z M 160.230469 299.460938 C 132.367188 294.503906 107.089844 282.066406 86.550781 264.300781 L 53.535156 335.214844 L 102.546875 326.652344 L 127.546875 369.671875 Z M 189.867188 97.449219 C 189.03125 95.246094 185.890625 95.246094 185.054688 97.449219 L 172.703125 129.984375 C 172.332031 130.960938 171.464844 131.589844 170.421875 131.640625 L 135.660156 133.335938 C 133.296875 133.449219 132.328125 136.429688 134.171875 137.910156 L 161.300781 159.714844 C 162.113281 160.371094 162.445312 161.386719 162.171875 162.394531 L 153.039062 195.980469 C 152.417969 198.261719 154.953125 200.105469 156.933594 198.808594 L 186.050781 179.746094 C 186.925781 179.171875 187.996094 179.171875 188.871094 179.746094 L 217.988281 198.808594 C 219.96875 200.105469 222.503906 198.261719 221.878906 195.980469 L 212.75 162.394531 C 212.476562 161.386719 212.804688 160.371094 213.621094 159.714844 L 240.746094 137.914062 C 242.59375 136.429688 241.625 133.453125 239.261719 133.335938 L 204.5 131.640625 C 203.453125 131.589844 202.589844 130.960938 202.21875 129.984375 Z M 200.898438 46.980469 C 192.808594 40.925781 182.113281 40.925781 174.023438 46.980469 C 152.960938 62.746094 157.738281 61.007812 131.46875 62.46875 C 121.378906 63.027344 113.183594 69.90625 110.878906 79.746094 C 104.878906 105.359375 107.421875 100.957031 88.238281 118.960938 C 80.871094 125.878906 79.011719 136.410156 83.570312 145.429688 C 95.441406 168.910156 94.558594 163.902344 91.433594 190.027344 C 90.234375 200.058594 95.585938 209.324219 104.875 213.300781 C 129.058594 223.660156 125.164062 220.390625 139.5625 242.410156 C 145.09375 250.867188 155.144531 254.527344 164.820312 251.601562 C 190.003906 243.992188 184.921875 243.992188 210.105469 251.601562 C 219.777344 254.527344 229.828125 250.867188 235.359375 242.410156 C 249.757812 220.390625 245.867188 223.660156 270.050781 213.300781 C 279.339844 209.324219 284.6875 200.058594 283.488281 190.027344 C 280.367188 163.902344 279.484375 168.910156 291.351562 145.429688 C 295.910156 136.410156 294.050781 125.878906 286.683594 118.960938 C 267.5 100.957031 270.042969 105.359375 264.042969 79.746094 C 261.738281 69.90625 253.542969 63.03125 243.453125 62.46875 C 217.183594 61.007812 221.960938 62.746094 200.898438 46.980469 Z M 200.898438 46.980469 " fill-opacity="1" fill-rule="evenodd"/></g></svg>