<svg width="166" height="166" viewBox="0 0 166 166" fill="none" xmlns="http://www.w3.org/2000/svg">
<path d="M165.43 82.715C165.43 37.0328 128.397 0 82.715 0C37.0327 0 0 37.0328 0 82.715C0 128.397 37.0327 165.43 82.715 165.43C128.397 165.43 165.43 128.397 165.43 82.715Z" fill="#7484DD"/>
<path d="M102.87 95.4603L105.48 78.4302H89.14V67.3802C89.14 62.7202 91.42 58.1802 98.74 58.1802H106.17V43.6802C106.17 43.6802 99.43 42.5303 92.98 42.5303C79.53 42.5303 70.73 50.6803 70.73 65.4503V78.4302H55.77V95.4603H70.73V136.62C73.73 137.09 76.7999 137.34 79.9299 137.34C83.0599 137.34 86.13 137.09 89.13 136.62V95.4603H102.85H102.87Z" fill="white"/>
</svg>
