<svg width="165" height="165" viewBox="0 0 165 165" fill="none" xmlns="http://www.w3.org/2000/svg">
<path d="M82.29 0H82.28C36.838 0 0 36.838 0 82.28V82.29C0 127.732 36.838 164.57 82.28 164.57H82.29C127.732 164.57 164.57 127.732 164.57 82.29V82.28C164.57 36.838 127.732 0 82.29 0Z" fill="#7484DD"/>
<path d="M82.1801 27.6699C51.3901 27.7299 26.38 52.9299 26.53 83.7199C26.66 108.6 43.0801 129.62 65.6701 136.66C66.9401 137.06 68.2301 136.09 68.2101 134.76C68.1601 131.65 68.11 128.55 68.06 125.44C68.06 124.66 67.4301 124.07 66.6501 124.12C65.3001 124.28 63.95 124.45 62.6 124.61C59.1 125.01 56.29 124.46 54.82 123.81C54.62 123.72 54.4299 123.63 54.2399 123.53C53.2899 123.04 52.4201 122.4 51.6301 121.68C51.5301 121.59 51.42 121.49 51.32 121.4C50.67 120.83 49.8401 119.96 49.1501 118.71C48.7501 117.98 48.48 117.28 48.3 116.65C48 115.6 47.5 114.62 46.84 113.75C46.59 113.41 46.34 113.07 46.11 112.72C45.23 111.35 44.0401 110.19 42.6501 109.34L42.4201 109.2C41.8201 108.83 41.27 108.37 40.85 107.8C40.38 107.18 40.17 106.62 40.36 106.28C40.6 105.84 41.42 105.86 43.05 105.92C44.24 105.96 45.0101 105.98 45.9401 106.35C46.6601 106.64 47.14 107.03 48.07 107.81C49.36 108.89 50.51 109.84 51.57 111.42C52.45 112.72 52.25 112.93 53.09 113.92C54.03 115.04 55.0101 115.65 55.6401 116.03C57.5501 117.19 59.2899 117.51 59.7299 117.59C61.4599 117.88 62.7601 117.67 64.3701 117.41C66.4101 117.08 67.4299 116.92 68.0099 116.32C69.2299 115.06 68.3 113.7 69.54 111.45C70.91 108.97 71.6901 109.21 71.4401 108.68C71.2401 108.25 70.3201 108.41 68.9601 108.33C67.8801 108.27 66.81 107.74 64.52 107.31C63.58 107.13 60.2001 106.43 56.8801 104.4C56.3101 104.05 54.3401 102.8 52.3701 100.62C52.3701 100.62 50.55 98.6 48.34 94.52C48.32 94.48 48.3 94.45 48.3 94.45C48.29 94.42 48.2699 94.3899 48.2599 94.3599C47.3399 91.9799 46.3201 88.58 45.9601 84.4C45.6101 80.29 46.03 76.8299 46.52 74.3599C46.85 72.8399 47.58 70.4799 49.31 68.0999C50.05 67.0799 50.83 66.2499 51.55 65.5999C51.86 65.3199 51.98 64.8899 51.85 64.4899C51.33 62.9199 50.81 60.7199 50.77 58.0599C50.73 55.2999 51.2299 52.9999 51.7399 51.3499C51.9299 50.7499 52.5001 50.3499 53.1301 50.3799C54.8701 50.4599 57.0699 50.7499 59.4899 51.5399C63.4399 52.8299 66.2401 54.8699 67.8901 56.2999C68.0101 56.3999 68.17 56.43 68.31 56.39C71.75 55.3 76.9001 54.1099 83.2001 54.2799C88.3101 54.4199 92.5601 55.41 95.6201 56.39C95.7601 56.44 95.92 56.3999 96.03 56.2999C97.52 54.9099 100.17 52.82 104 51.52C106.35 50.72 108.49 50.4399 110.15 50.3699C110.95 50.3399 111.34 51.1899 111.55 51.4199C111.6 51.4799 111.66 51.5399 111.71 51.6199C113 53.3099 112.94 56.9 112.94 56.9C112.89 59.05 112.85 60.33 112.42 62.08C112.07 63.5 111.59 64.67 112.12 65.95C112.41 66.65 112.86 67.0599 113.1 67.2899C116.35 70.4299 117.65 77.0099 117.88 80.7299C117.88 80.7499 117.88 80.77 117.88 80.77C118.1 83.16 118.45 90.2699 113.95 97.0599C110.93 101.62 107.05 104.04 105.51 104.92C103.36 106.14 100.98 107.49 97.58 107.9C95.07 108.21 92.6701 107.93 92.4201 108.77C92.2701 109.26 93.05 109.66 94.02 111.17C94.64 112.13 94.92 112.91 95.31 113.97C95.9 115.58 96.2901 117.79 96.1601 126.14C96.1201 128.4 96.09 129.53 96.05 130.66C96 132.16 95.9501 133.56 95.8901 134.86C95.8301 136.2 97.1201 137.2 98.4101 136.82C121.33 129.9 138.03 108.62 138.03 83.4399C138.03 52.6099 113.01 27.6299 82.1701 27.6899L82.1801 27.6699Z" fill="white"/>
</svg>
