<svg width="32" height="32" viewBox="0 0 32 32" fill="none" xmlns="http://www.w3.org/2000/svg">
<path d="M2 11.9556C2 8.47078 2 6.7284 2.67818 5.39739C3.27473 4.22661 4.22661 3.27473 5.39739 2.67818C6.7284 2 8.47078 2 11.9556 2H20.0444C23.5292 2 25.2716 2 26.6026 2.67818C27.7734 3.27473 28.7253 4.22661 29.3218 5.39739C30 6.7284 30 8.47078 30 11.9556V20.0444C30 23.5292 30 25.2716 29.3218 26.6026C28.7253 27.7734 27.7734 28.7253 26.6026 29.3218C25.2716 30 23.5292 30 20.0444 30H11.9556C8.47078 30 6.7284 30 5.39739 29.3218C4.22661 28.7253 3.27473 27.7734 2.67818 26.6026C2 25.2716 2 23.5292 2 20.0444V11.9556Z" fill="black"/>
<path d="M21.5012 10.2542L16.0584 14.102L10.4911 10.2542V10.2552L10.4978 10.2604V15.6485L15.9956 19.5795L21.5012 15.8003V10.2542Z" fill="white"/>
<path d="M22.9303 9.3182L21.501 10.2542V15.8003L25.9987 12.6721V10.7877C25.9987 10.7877 25.4528 8.09624 22.9303 9.3182Z" fill="white"/>
<path d="M21.501 15.8003V22.9938H24.9483C24.9483 22.9938 25.9292 22.9023 25.9999 21.8893V12.6721L21.501 15.8003Z" fill="white"/>
<path d="M10.4977 23V15.6485L10.4911 15.6433L10.4977 23Z" fill="white"/>
<path d="M10.491 10.2554L9.06951 9.32464C6.54709 8.10268 6 10.7931 6 10.7931V12.6775L10.491 15.6435V10.2554Z" fill="white"/>
<path d="M10.4911 10.2551V15.6432L10.4977 15.6484V10.2603L10.4911 10.2551Z" fill="white"/>
<path d="M6 12.6782V21.8954C6.06951 22.9094 7.05157 22.9999 7.05157 22.9999H10.4989L10.491 15.6432L6 12.6782Z" fill="white"/>
</svg>
