<svg width="166" height="166" viewBox="0 0 166 166" fill="none" xmlns="http://www.w3.org/2000/svg">
<path d="M165.43 82.715C165.43 37.0328 128.397 0 82.715 0C37.0328 0 0 37.0328 0 82.715C0 128.397 37.0328 165.43 82.715 165.43C128.397 165.43 165.43 128.397 165.43 82.715Z" fill="#7484DD"/>
<path d="M87.86 73.7506C89.01 72.4606 89.9499 71.1606 91.1299 70.0506C94.7499 66.6406 99.03 64.9206 104.02 64.9606C106.76 64.9806 109.48 65.1806 112.13 65.9506C118.18 67.7006 121.7 71.8707 123.38 77.7807C124.64 82.2106 124.87 86.7706 124.88 91.3406C124.9 100.971 124.85 110.611 124.88 120.241C124.88 121.141 124.63 121.381 123.74 121.371C118.78 121.331 113.81 121.331 108.85 121.371C107.98 121.371 107.79 121.111 107.79 120.281C107.82 111.111 107.82 101.941 107.79 92.7807C107.79 90.4807 107.64 88.1906 106.99 85.9506C105.8 81.8406 102.86 79.7407 98.55 79.9707C92.66 80.2807 89.5999 83.2006 88.8499 89.1806C88.6699 90.6106 88.5899 92.0406 88.5899 93.4806C88.5899 102.401 88.59 111.311 88.61 120.231C88.61 121.121 88.3899 121.381 87.4799 121.371C82.4799 121.331 77.4799 121.331 72.4799 121.371C71.6799 121.371 71.45 121.161 71.45 120.351C71.47 102.701 71.47 85.0506 71.45 67.3906C71.45 66.5206 71.7399 66.3106 72.5599 66.3206C77.3099 66.3606 82.06 66.3606 86.8 66.3206C87.67 66.3206 87.8999 66.5906 87.8799 67.4206C87.8299 69.5306 87.86 71.6406 87.86 73.7506Z" fill="white"/>
<path d="M60.67 93.92C60.67 102.65 60.66 111.39 60.69 120.12C60.69 121.09 60.45 121.38 59.45 121.37C54.49 121.32 49.53 121.33 44.57 121.37C43.77 121.37 43.54 121.18 43.54 120.35C43.56 102.67 43.56 84.99 43.54 67.31C43.54 65.98 44.13 66.21 47.85 66.76C51.07 67.24 54.36 67.1901 57.56 66.5901C60.4 66.0601 60.69 66.29 60.69 67.52C60.67 76.32 60.68 85.13 60.68 93.93L60.67 93.92Z" fill="white"/>
<path d="M62.04 48.8004C62.04 56.5604 53.14 62.2804 45.04 56.2104C38.51 48.1504 44.33 38.9404 52.14 38.9404C57.56 38.9404 62.03 43.4004 62.03 48.8004H62.04Z" fill="white"/>
</svg>
