<svg xmlns="http://www.w3.org/2000/svg" xmlns:xlink="http://www.w3.org/1999/xlink" width="500" zoomAndPan="magnify" viewBox="0 0 375 374.999991" height="500" preserveAspectRatio="xMidYMid meet" version="1.0"><defs><clipPath id="20333bfb9d"><path d="M 16 23.125 L 355 23.125 L 355 362.65625 L 16 362.65625 Z M 16 23.125 " clip-rule="nonzero"/></clipPath><clipPath id="5547fecdaa"><path d="M 213.835938 35.269531 L 343.34375 164.78125 C 350.800781 172.234375 354.988281 182.347656 354.988281 192.890625 C 354.988281 203.429688 350.800781 213.542969 343.34375 220.996094 L 213.835938 350.507812 C 206.378906 357.960938 196.269531 362.148438 185.726562 362.148438 C 175.183594 362.148438 165.074219 357.960938 157.617188 350.507812 L 28.109375 220.996094 C 20.652344 213.542969 16.464844 203.429688 16.464844 192.890625 C 16.464844 182.347656 20.652344 172.234375 28.109375 164.78125 L 157.617188 35.269531 C 165.074219 27.816406 175.183594 23.628906 185.726562 23.628906 C 196.269531 23.628906 206.378906 27.816406 213.835938 35.269531 Z M 213.835938 35.269531 " clip-rule="nonzero"/></clipPath><clipPath id="cddf6d20a7"><path d="M 16.78125 16 L 355 16 L 355 342 L 16.78125 342 Z M 16.78125 16 " clip-rule="nonzero"/></clipPath><clipPath id="cfbc216256"><path d="M 214.347656 27.585938 L 342.832031 151.433594 C 350.324219 158.65625 354.558594 168.613281 354.558594 179.019531 C 354.558594 189.425781 350.324219 199.382812 342.832031 206.605469 L 214.347656 330.453125 C 198.371094 345.851562 173.082031 345.851562 157.105469 330.453125 L 28.621094 206.605469 C 21.128906 199.382812 16.894531 189.425781 16.894531 179.019531 C 16.894531 168.613281 21.128906 158.65625 28.621094 151.433594 L 157.105469 27.585938 C 173.082031 12.1875 198.371094 12.1875 214.347656 27.585938 Z M 214.347656 27.585938 " clip-rule="nonzero"/></clipPath><clipPath id="ea8e5373c4"><path d="M 94.1875 140 L 276 140 L 276 219 L 94.1875 219 Z M 94.1875 140 " clip-rule="nonzero"/></clipPath></defs><g clip-path="url(#20333bfb9d)"><g clip-path="url(#5547fecdaa)"><path fill="#b4b4b4" d="M 0 7.164062 L 371.453125 7.164062 L 371.453125 378.617188 L 0 378.617188 Z M 0 7.164062 " fill-opacity="1" fill-rule="nonzero"/></g></g><g clip-path="url(#cddf6d20a7)"><g clip-path="url(#cfbc216256)"><path fill="#000000" d="M 0 0 L 372.027344 0 L 372.027344 358.039062 L 0 358.039062 Z M 0 0 " fill-opacity="1" fill-rule="nonzero"/></g></g><path fill="#ffffff" d="M 119.84375 114.089844 C 119.84375 110.214844 121.136719 107.628906 123.71875 105.046875 L 175.390625 53.378906 C 180.554688 48.210938 188.304688 48.210938 193.472656 53.378906 L 245.144531 105.046875 C 250.308594 110.214844 250.308594 117.964844 245.144531 123.132812 C 239.976562 128.296875 232.226562 128.296875 227.058594 123.132812 L 184.429688 80.503906 L 141.804688 123.132812 C 136.636719 128.296875 128.886719 128.296875 123.71875 123.132812 C 121.136719 120.546875 119.84375 117.964844 119.84375 114.089844 Z M 119.84375 114.089844 " fill-opacity="1" fill-rule="nonzero"/><path fill="#ffffff" d="M 119.84375 243.261719 C 119.84375 239.386719 121.136719 236.804688 123.71875 234.222656 C 128.886719 229.054688 136.636719 229.054688 141.804688 234.222656 L 184.429688 276.847656 L 227.058594 234.222656 C 232.226562 229.054688 239.976562 229.054688 245.144531 234.222656 C 250.308594 239.386719 250.308594 247.140625 245.144531 252.304688 L 193.472656 303.976562 C 188.304688 309.140625 180.554688 309.140625 175.390625 303.976562 L 123.71875 252.304688 C 121.136719 249.722656 119.84375 247.140625 119.84375 243.261719 Z M 119.84375 243.261719 " fill-opacity="1" fill-rule="nonzero"/><g clip-path="url(#ea8e5373c4)"><path fill="#ffffff" d="M 94.007812 152.839844 C 94.007812 151.550781 94.007812 150.257812 95.300781 148.964844 C 97.882812 142.507812 104.34375 138.632812 112.09375 141.214844 L 267.101562 192.886719 C 273.5625 195.46875 277.4375 201.929688 274.851562 209.679688 C 272.269531 216.136719 265.8125 220.011719 258.0625 217.429688 L 103.050781 165.757812 C 97.882812 163.175781 94.007812 158.007812 94.007812 152.839844 Z M 94.007812 152.839844 " fill-opacity="1" fill-rule="nonzero"/></g></svg>