<svg xmlns="http://www.w3.org/2000/svg" xmlns:xlink="http://www.w3.org/1999/xlink" width="1920" zoomAndPan="magnify" viewBox="0 0 1440 809.999993" height="1080" preserveAspectRatio="xMidYMid meet" version="1.0"><defs><g/><clipPath id="999025cd80"><path d="M 560 281.664062 L 1426.148438 281.664062 L 1426.148438 562.003906 L 560 562.003906 Z M 560 281.664062 " clip-rule="nonzero"/></clipPath><clipPath id="c5094f630d"><path d="M 683.589844 562.003906 L 1351.148438 562.003906 C 1392.570312 562.003906 1426.148438 528.425781 1426.148438 487.003906 L 1426.148438 356.664062 C 1426.148438 315.242188 1392.570312 281.664062 1351.148438 281.664062 L 683.589844 281.664062 C 637.886719 281.664062 596.367188 308.285156 577.296875 349.824219 L 575.53125 353.671875 C 555.664062 396.941406 555.664062 446.722656 575.53125 489.992188 L 577.296875 493.84375 C 596.367188 535.378906 637.886719 562.003906 683.589844 562.003906 Z M 683.589844 562.003906 " clip-rule="nonzero"/></clipPath><clipPath id="d4e0d187a3"><path d="M 505.152344 281.792969 L 793.375 281.792969 L 793.375 570 L 505.152344 570 Z M 505.152344 281.792969 " clip-rule="nonzero"/></clipPath><clipPath id="ad85460424"><path d="M 677.371094 293.609375 L 781.558594 397.796875 C 797.082031 413.320312 797.082031 438.488281 781.558594 454.011719 L 677.371094 558.195312 C 661.847656 573.71875 636.679688 573.71875 621.15625 558.195312 L 516.96875 454.011719 C 501.445312 438.488281 501.445312 413.320312 516.96875 397.796875 L 621.15625 293.609375 C 636.679688 278.085938 661.847656 278.085938 677.371094 293.609375 Z M 677.371094 293.609375 " clip-rule="nonzero"/></clipPath><clipPath id="5d13595be1"><path d="M 505 275.019531 L 793 275.019531 L 793 552.832031 L 505 552.832031 Z M 505 275.019531 " clip-rule="nonzero"/></clipPath><clipPath id="194b173012"><path d="M 677.882812 286.902344 L 781.046875 386.339844 C 788.539062 393.5625 792.769531 403.519531 792.769531 413.925781 C 792.769531 424.332031 788.539062 434.289062 781.046875 441.511719 L 677.882812 540.949219 C 661.910156 556.34375 636.617188 556.34375 620.644531 540.949219 L 517.480469 441.511719 C 509.988281 434.289062 505.757812 424.332031 505.757812 413.925781 C 505.757812 403.519531 509.988281 393.5625 517.480469 386.339844 L 620.644531 286.902344 C 636.617188 271.503906 661.910156 271.503906 677.882812 286.902344 Z M 677.882812 286.902344 " clip-rule="nonzero"/></clipPath></defs><g clip-path="url(#999025cd80)"><g clip-path="url(#c5094f630d)"><path fill="#000000" d="M 1426.148438 562.003906 L 544.613281 562.003906 L 544.613281 281.664062 L 1426.148438 281.664062 Z M 1426.148438 562.003906 " fill-opacity="1" fill-rule="nonzero"/></g></g><g clip-path="url(#d4e0d187a3)"><g clip-path="url(#ad85460424)"><path fill="#b4b4b4" d="M 488.863281 265.5 L 809.664062 265.5 L 809.664062 586.304688 L 488.863281 586.304688 Z M 488.863281 265.5 " fill-opacity="1" fill-rule="nonzero"/></g></g><g clip-path="url(#5d13595be1)"><g clip-path="url(#194b173012)"><path fill="#000000" d="M 488.863281 259.316406 L 810.160156 259.316406 L 810.160156 568.535156 L 488.863281 568.535156 Z M 488.863281 259.316406 " fill-opacity="1" fill-rule="nonzero"/></g></g><path fill="#ffffff" d="M 592.367188 357.847656 C 592.367188 354.5 593.484375 352.269531 595.714844 350.039062 L 640.339844 305.414062 C 644.800781 300.953125 651.492188 300.953125 655.957031 305.414062 L 700.578125 350.039062 C 705.042969 354.5 705.042969 361.195312 700.578125 365.65625 C 696.117188 370.117188 689.421875 370.117188 684.960938 365.65625 L 648.148438 328.84375 L 611.332031 365.65625 C 606.871094 370.117188 600.175781 370.117188 595.714844 365.65625 C 593.484375 363.425781 592.367188 361.195312 592.367188 357.847656 Z M 592.367188 357.847656 " fill-opacity="1" fill-rule="nonzero"/><path fill="#ffffff" d="M 592.367188 469.40625 C 592.367188 466.058594 593.484375 463.828125 595.714844 461.597656 C 600.175781 457.132812 606.871094 457.132812 611.332031 461.597656 L 648.148438 498.410156 L 684.960938 461.597656 C 689.421875 457.132812 696.117188 457.132812 700.578125 461.597656 C 705.042969 466.058594 705.042969 472.753906 700.578125 477.214844 L 655.957031 521.839844 C 651.492188 526.300781 644.800781 526.300781 640.339844 521.839844 L 595.714844 477.214844 C 593.484375 474.984375 592.367188 472.753906 592.367188 469.40625 Z M 592.367188 469.40625 " fill-opacity="1" fill-rule="nonzero"/><path fill="#ffffff" d="M 570.054688 391.316406 C 570.054688 390.199219 570.054688 389.082031 571.171875 387.96875 C 573.402344 382.390625 578.980469 379.042969 585.675781 381.273438 L 719.542969 425.898438 C 725.121094 428.128906 728.46875 433.707031 726.238281 440.402344 C 724.007812 445.980469 718.429688 449.324219 711.734375 447.09375 L 577.867188 402.472656 C 573.402344 400.238281 570.054688 395.777344 570.054688 391.316406 Z M 570.054688 391.316406 " fill-opacity="1" fill-rule="nonzero"/><g fill="#000000" fill-opacity="1"><g transform="translate(12.277726, 516.383402)"><g><path d="M 176.441406 0 L 113.898438 -181.019531 L 70.425781 -181.019531 L 6.355469 0 L 46.273438 0 L 58.476562 -37.628906 L 124.070312 -37.628906 L 136.273438 0 Z M 76.019531 -91.019531 L 91.527344 -143.136719 L 106.78125 -91.019531 L 114.152344 -68.644531 L 68.644531 -68.644531 Z M 76.019531 -91.019531 "/></g></g></g><g fill="#000000" fill-opacity="1"><g transform="translate(224.314428, 516.383402)"><g><path d="M 54.152344 -181.019531 L 16.527344 -181.019531 L 16.527344 0 L 142.375 0 L 142.375 -33.558594 L 54.152344 -33.558594 Z M 54.152344 -181.019531 "/></g></g></g><g fill="#000000" fill-opacity="1"><g transform="translate(399.740522, 516.383402)"><g><path d="M 54.152344 0 L 54.152344 -181.019531 L 16.527344 -181.019531 L 16.527344 0 Z M 54.152344 0 "/></g></g></g><g fill="#ffffff" fill-opacity="1"><g transform="translate(816.73411, 517.355942)"><g><path d="M 75.507812 -181.019531 L 16.527344 -181.019531 L 16.527344 0 L 80.59375 0 C 142.121094 0 169.070312 -37.628906 169.070312 -91.78125 C 169.070312 -145.933594 143.390625 -181.019531 75.507812 -181.019531 Z M 54.152344 -31.78125 L 54.152344 -150.511719 L 71.949219 -150.511719 C 118.222656 -150.511719 131.441406 -129.664062 131.441406 -90.511719 C 131.441406 -51.101562 116.949219 -31.78125 77.035156 -31.78125 Z M 54.152344 -31.78125 "/></g></g></g><g fill="#ffffff" fill-opacity="1"><g transform="translate(1023.177549, 517.355942)"><g><path d="M 54.152344 -77.289062 L 138.816406 -77.289062 L 138.816406 -110.847656 L 54.152344 -110.847656 L 54.152344 -147.460938 L 148.222656 -147.460938 L 148.222656 -181.019531 L 16.527344 -181.019531 L 16.527344 0 L 150.765625 0 L 150.765625 -33.558594 L 54.152344 -33.558594 Z M 54.152344 -77.289062 "/></g></g></g><g fill="#ffffff" fill-opacity="1"><g transform="translate(1213.349576, 517.355942)"><g><path d="M 101.441406 -102.203125 L 85.933594 -42.457031 L 70.425781 -102.203125 L 46.273438 -181.019531 L 6.355469 -181.019531 L 67.628906 0 L 103.222656 0 L 164.75 -181.019531 L 124.832031 -181.019531 Z M 101.441406 -102.203125 "/></g></g></g></svg>