<svg xmlns="http://www.w3.org/2000/svg" xmlns:xlink="http://www.w3.org/1999/xlink" width="1920" zoomAndPan="magnify" viewBox="0 0 1440 809.999993" height="1080" preserveAspectRatio="xMidYMid meet" version="1.0"><defs><g/><clipPath id="be864ced3d"><path d="M 38.660156 160.230469 L 528.199219 160.230469 L 528.199219 649.769531 L 38.660156 649.769531 Z M 38.660156 160.230469 " clip-rule="nonzero"/></clipPath><clipPath id="d68ee506ed"><path d="M 311.539062 172.023438 L 516.40625 376.890625 C 523.863281 384.347656 528.050781 394.457031 528.050781 405 C 528.050781 415.542969 523.863281 425.652344 516.40625 433.109375 L 311.539062 637.976562 C 304.082031 645.433594 293.972656 649.621094 283.429688 649.621094 C 272.886719 649.621094 262.777344 645.433594 255.324219 637.976562 L 50.453125 433.109375 C 42.996094 425.652344 38.808594 415.542969 38.808594 405 C 38.808594 394.457031 42.996094 384.347656 50.453125 376.890625 L 255.324219 172.023438 C 262.777344 164.566406 272.886719 160.378906 283.429688 160.378906 C 293.972656 160.378906 304.082031 164.566406 311.539062 172.023438 Z M 311.539062 172.023438 " clip-rule="nonzero"/></clipPath><clipPath id="303a93e08c"><path d="M 39 149.574219 L 527.625 149.574219 L 527.625 621.433594 L 39 621.433594 Z M 39 149.574219 " clip-rule="nonzero"/></clipPath><clipPath id="32ce20a0ff"><path d="M 312.050781 161.433594 L 515.894531 357.917969 C 523.386719 365.140625 527.621094 375.097656 527.621094 385.503906 C 527.621094 395.910156 523.386719 405.867188 515.894531 413.089844 L 312.050781 609.574219 C 296.074219 624.972656 270.785156 624.972656 254.808594 609.574219 L 50.964844 413.089844 C 43.472656 405.867188 39.238281 395.910156 39.238281 385.503906 C 39.238281 375.097656 43.472656 365.140625 50.964844 357.917969 L 254.808594 161.433594 C 270.785156 146.035156 296.074219 146.035156 312.050781 161.433594 Z M 312.050781 161.433594 " clip-rule="nonzero"/></clipPath><clipPath id="bd9e5ce2b9"><path d="M 154.351562 331 L 410 331 L 410 441 L 154.351562 441 Z M 154.351562 331 " clip-rule="nonzero"/></clipPath><clipPath id="3451d1509a"><path d="M 846.03125 271.277344 L 1426.976562 271.277344 L 1426.976562 499.730469 L 846.03125 499.730469 Z M 846.03125 271.277344 " clip-rule="nonzero"/></clipPath><clipPath id="a69d1dd4fb"><path d="M 921.03125 271.277344 L 1351.714844 271.277344 C 1371.605469 271.277344 1390.679688 279.179688 1404.746094 293.246094 C 1418.8125 307.308594 1426.714844 326.386719 1426.714844 346.277344 L 1426.714844 424.730469 C 1426.714844 444.621094 1418.8125 463.695312 1404.746094 477.761719 C 1390.679688 491.828125 1371.605469 499.730469 1351.714844 499.730469 L 921.03125 499.730469 C 901.140625 499.730469 882.066406 491.828125 868 477.761719 C 853.933594 463.695312 846.03125 444.621094 846.03125 424.730469 L 846.03125 346.277344 C 846.03125 326.386719 853.933594 307.308594 868 293.246094 C 882.066406 279.179688 901.140625 271.277344 921.03125 271.277344 Z M 921.03125 271.277344 " clip-rule="nonzero"/></clipPath></defs><g clip-path="url(#be864ced3d)"><g clip-path="url(#d68ee506ed)"><path fill="#b4b4b4" d="M 22.34375 143.914062 L 544.515625 143.914062 L 544.515625 666.085938 L 22.34375 666.085938 Z M 22.34375 143.914062 " fill-opacity="1" fill-rule="nonzero"/></g></g><g clip-path="url(#303a93e08c)"><g clip-path="url(#32ce20a0ff)"><path fill="#000000" d="M 22.34375 133.847656 L 545.320312 133.847656 L 545.320312 637.160156 L 22.34375 637.160156 Z M 22.34375 133.847656 " fill-opacity="1" fill-rule="nonzero"/></g></g><path fill="#ffffff" d="M 190.820312 294.226562 C 190.820312 288.777344 192.636719 285.148438 196.269531 281.515625 L 268.902344 208.882812 C 276.164062 201.621094 287.058594 201.621094 294.324219 208.882812 L 366.957031 281.515625 C 374.21875 288.777344 374.21875 299.675781 366.957031 306.9375 C 359.695312 314.199219 348.796875 314.199219 341.535156 306.9375 L 281.613281 247.015625 L 221.691406 306.9375 C 214.425781 314.199219 203.53125 314.199219 196.269531 306.9375 C 192.636719 303.304688 190.820312 299.675781 190.820312 294.226562 Z M 190.820312 294.226562 " fill-opacity="1" fill-rule="nonzero"/><path fill="#ffffff" d="M 190.820312 475.808594 C 190.820312 470.363281 192.636719 466.730469 196.269531 463.097656 C 203.53125 455.835938 214.425781 455.835938 221.691406 463.097656 L 281.613281 523.019531 L 341.535156 463.097656 C 348.796875 455.835938 359.695312 455.835938 366.957031 463.097656 C 374.21875 470.363281 374.21875 481.257812 366.957031 488.519531 L 294.324219 561.152344 C 287.058594 568.417969 276.164062 568.417969 268.902344 561.152344 L 196.269531 488.519531 C 192.636719 484.890625 190.820312 481.257812 190.820312 475.808594 Z M 190.820312 475.808594 " fill-opacity="1" fill-rule="nonzero"/><g clip-path="url(#bd9e5ce2b9)"><path fill="#ffffff" d="M 154.503906 348.703125 C 154.503906 346.886719 154.503906 345.070312 156.320312 343.253906 C 159.953125 334.175781 169.03125 328.726562 179.925781 332.359375 L 397.824219 404.992188 C 406.90625 408.625 412.351562 417.703125 408.722656 428.597656 C 405.089844 437.675781 396.011719 443.125 385.113281 439.492188 L 167.214844 366.859375 C 159.953125 363.226562 154.503906 355.964844 154.503906 348.703125 Z M 154.503906 348.703125 " fill-opacity="1" fill-rule="nonzero"/></g><g clip-path="url(#3451d1509a)"><g clip-path="url(#a69d1dd4fb)"><path fill="#000000" d="M 846.03125 271.277344 L 1426.976562 271.277344 L 1426.976562 499.730469 L 846.03125 499.730469 Z M 846.03125 271.277344 " fill-opacity="1" fill-rule="nonzero"/></g></g><g fill="#000000" fill-opacity="1"><g transform="translate(512.968156, 461.747195)"><g><path d="M 156.695312 0 L 101.152344 -160.757812 L 62.542969 -160.757812 L 5.644531 0 L 41.09375 0 L 51.929688 -33.417969 L 110.183594 -33.417969 L 121.019531 0 Z M 67.511719 -80.832031 L 81.28125 -127.117188 L 94.832031 -80.832031 L 101.378906 -60.960938 L 60.960938 -60.960938 Z M 67.511719 -80.832031 "/></g></g></g><g fill="#000000" fill-opacity="1"><g transform="translate(701.273687, 461.747195)"><g><path d="M 45.382812 0 L 45.382812 -160.757812 L 13.546875 -160.757812 L 13.546875 0 Z M 45.382812 0 "/></g></g></g><g fill="#000000" fill-opacity="1"><g transform="translate(786.169341, 461.747195)"><g><path d="M 45.609375 -131.859375 L 45.609375 -160.757812 L 13.773438 -160.757812 L 13.773438 -131.859375 Z M 45.382812 0 L 45.382812 -116.503906 L 13.546875 -116.503906 L 13.546875 0 Z M 45.382812 0 "/></g></g></g><g fill="#ffffff" fill-opacity="1"><g transform="translate(871.065186, 461.747195)"><g><path d="M 50.800781 0 L 50.800781 -33.867188 L 13.546875 -33.867188 L 13.546875 0 Z M 50.800781 0 "/></g></g></g><g fill="#ffffff" fill-opacity="1"><g transform="translate(961.379745, 461.747195)"><g><path d="M 88.734375 -104.765625 C 80.832031 -114.472656 69.769531 -119.441406 54.867188 -119.441406 C 28.449219 -119.441406 7.226562 -96.863281 7.226562 -58.703125 C 7.226562 -21.222656 27.996094 3.839844 57.351562 3.839844 C 71.800781 3.839844 83.316406 -2.257812 91.21875 -14.449219 L 92.347656 0 L 120.570312 0 L 120.570312 -160.757812 L 88.734375 -160.757812 Z M 64.125 -24.160156 C 48.769531 -24.160156 37.933594 -37.253906 37.933594 -58.703125 C 37.933594 -79.929688 48.769531 -93.023438 64.125 -93.023438 C 79.476562 -93.023438 90.316406 -79.703125 90.316406 -58.703125 C 90.316406 -37.707031 79.476562 -24.160156 64.125 -24.160156 Z M 64.125 -24.160156 "/></g></g></g><g fill="#ffffff" fill-opacity="1"><g transform="translate(1121.462073, 461.747195)"><g><path d="M 124.40625 -54.1875 C 124.40625 -95.054688 99.121094 -119.441406 64.574219 -119.441406 C 28.902344 -119.441406 7.226562 -92.796875 7.226562 -58.703125 C 7.226562 -23.03125 29.351562 3.839844 67.960938 3.839844 C 94.152344 3.839844 113.570312 -8.355469 121.472656 -33.640625 L 89.863281 -35.898438 C 86.023438 -25.738281 78.347656 -20.773438 67.285156 -20.773438 C 51.480469 -20.773438 41.320312 -31.160156 39.964844 -48.769531 L 124.40625 -48.769531 Z M 65.703125 -96.183594 C 80.152344 -96.183594 89.636719 -86.703125 91.445312 -70.445312 L 39.738281 -70.445312 C 41.320312 -86.476562 51.253906 -96.183594 65.703125 -96.183594 Z M 65.703125 -96.183594 "/></g></g></g><g fill="#ffffff" fill-opacity="1"><g transform="translate(1279.060786, 461.747195)"><g><path d="M 69.992188 -81.507812 L 58.703125 -30.707031 L 46.738281 -81.507812 L 37.027344 -116.503906 L 3.386719 -116.503906 L 41.769531 0 L 74.285156 0 L 112.667969 -116.503906 L 80.605469 -116.503906 Z M 69.992188 -81.507812 "/></g></g></g></svg>