<svg xmlns="http://www.w3.org/2000/svg" xmlns:xlink="http://www.w3.org/1999/xlink" width="1920" zoomAndPan="magnify" viewBox="0 0 1440 809.999993" height="1080" preserveAspectRatio="xMidYMid meet" version="1.0"><defs><g/><clipPath id="ecadbb45d6"><path d="M 59 146 L 508 146 L 508 594 L 59 594 Z M 59 146 " clip-rule="nonzero"/></clipPath><clipPath id="adc5f28116"><path d="M 311.621094 157.679688 L 495.855469 341.914062 C 511.378906 357.4375 511.378906 382.605469 495.855469 398.128906 L 311.621094 582.359375 C 296.101562 597.882812 270.929688 597.882812 255.40625 582.359375 L 71.175781 398.128906 C 55.652344 382.605469 55.652344 357.4375 71.175781 341.914062 L 255.40625 157.679688 C 270.929688 142.15625 296.101562 142.15625 311.621094 157.679688 Z M 311.621094 157.679688 " clip-rule="nonzero"/></clipPath><clipPath id="ec13c90af1"><path d="M 59.363281 145 L 508 145 L 508 578 L 59.363281 578 Z M 59.363281 145 " clip-rule="nonzero"/></clipPath><clipPath id="550a7d04bc"><path d="M 312.136719 157.160156 L 495.34375 333.75 C 502.835938 340.972656 507.066406 350.929688 507.066406 361.335938 C 507.066406 371.742188 502.835938 381.703125 495.34375 388.921875 L 312.136719 565.515625 C 296.160156 580.910156 270.871094 580.910156 254.894531 565.515625 L 71.6875 388.921875 C 64.195312 381.703125 59.964844 371.742188 59.964844 361.335938 C 59.964844 350.929688 64.195312 340.972656 71.6875 333.75 L 254.894531 157.160156 C 270.871094 141.761719 296.160156 141.761719 312.136719 157.160156 Z M 312.136719 157.160156 " clip-rule="nonzero"/></clipPath><clipPath id="1623400341"><path d="M 164.5 302 L 400 302 L 400 403 L 164.5 403 Z M 164.5 302 " clip-rule="nonzero"/></clipPath><clipPath id="b666f7aa2c"><path d="M 801.644531 246.871094 L 1336.664062 246.871094 L 1336.664062 457.261719 L 801.644531 457.261719 Z M 801.644531 246.871094 " clip-rule="nonzero"/></clipPath><clipPath id="29a76f7412"><path d="M 876.644531 246.871094 L 1261.421875 246.871094 C 1302.84375 246.871094 1336.421875 280.449219 1336.421875 321.871094 L 1336.421875 382.261719 C 1336.421875 423.683594 1302.84375 457.261719 1261.421875 457.261719 L 876.644531 457.261719 C 835.222656 457.261719 801.644531 423.683594 801.644531 382.261719 L 801.644531 321.871094 C 801.644531 280.449219 835.222656 246.871094 876.644531 246.871094 Z M 876.644531 246.871094 " clip-rule="nonzero"/></clipPath></defs><g clip-path="url(#ecadbb45d6)"><g clip-path="url(#adc5f28116)"><path fill="#b4b4b4" d="M 43.070312 129.574219 L 523.960938 129.574219 L 523.960938 610.464844 L 43.070312 610.464844 Z M 43.070312 129.574219 " fill-opacity="1" fill-rule="nonzero"/></g></g><g clip-path="url(#ec13c90af1)"><g clip-path="url(#550a7d04bc)"><path fill="#000000" d="M 43.070312 129.574219 L 524.703125 129.574219 L 524.703125 593.101562 L 43.070312 593.101562 Z M 43.070312 129.574219 " fill-opacity="1" fill-rule="nonzero"/></g></g><path fill="#ffffff" d="M 198.226562 268.003906 C 198.226562 262.988281 199.898438 259.644531 203.242188 256.296875 L 270.136719 189.40625 C 276.824219 182.714844 286.859375 182.714844 293.546875 189.40625 L 360.441406 256.296875 C 367.128906 262.988281 367.128906 273.019531 360.441406 279.710938 C 353.75 286.398438 343.71875 286.398438 337.027344 279.710938 L 281.839844 224.523438 L 226.65625 279.710938 C 219.964844 286.398438 209.933594 286.398438 203.242188 279.710938 C 199.898438 276.367188 198.226562 273.019531 198.226562 268.003906 Z M 198.226562 268.003906 " fill-opacity="1" fill-rule="nonzero"/><path fill="#ffffff" d="M 198.226562 435.234375 C 198.226562 430.21875 199.898438 426.875 203.242188 423.53125 C 209.933594 416.839844 219.964844 416.839844 226.65625 423.53125 L 281.839844 478.714844 L 337.027344 423.53125 C 343.71875 416.839844 353.75 416.839844 360.441406 423.53125 C 367.128906 430.21875 367.128906 440.253906 360.441406 446.941406 L 293.546875 513.835938 C 286.859375 520.523438 276.824219 520.523438 270.136719 513.835938 L 203.242188 446.941406 C 199.898438 443.597656 198.226562 440.253906 198.226562 435.234375 Z M 198.226562 435.234375 " fill-opacity="1" fill-rule="nonzero"/><g clip-path="url(#1623400341)"><path fill="#ffffff" d="M 164.78125 318.171875 C 164.78125 316.5 164.78125 314.828125 166.453125 313.15625 C 169.796875 304.796875 178.15625 299.777344 188.191406 303.121094 L 388.871094 370.015625 C 397.230469 373.359375 402.25 381.722656 398.902344 391.753906 C 395.558594 400.117188 387.199219 405.132812 377.164062 401.789062 L 176.484375 334.898438 C 169.796875 331.550781 164.78125 324.863281 164.78125 318.171875 Z M 164.78125 318.171875 " fill-opacity="1" fill-rule="nonzero"/></g><g clip-path="url(#b666f7aa2c)"><g clip-path="url(#29a76f7412)"><path fill="#000000" d="M 801.644531 246.871094 L 1336.664062 246.871094 L 1336.664062 457.261719 L 801.644531 457.261719 Z M 801.644531 246.871094 " fill-opacity="1" fill-rule="nonzero"/></g></g><g fill="#000000" fill-opacity="1"><g transform="translate(494.908637, 422.281523)"><g><path d="M 144.308594 0 L 93.15625 -148.050781 L 57.597656 -148.050781 L 5.199219 0 L 37.84375 0 L 47.824219 -30.773438 L 101.472656 -30.773438 L 111.453125 0 Z M 62.171875 -74.441406 L 74.859375 -117.070312 L 87.332031 -74.441406 L 93.363281 -56.144531 L 56.144531 -56.144531 Z M 62.171875 -74.441406 "/></g></g></g><g fill="#000000" fill-opacity="1"><g transform="translate(668.328399, 422.281523)"><g><path d="M 41.796875 0 L 41.796875 -148.050781 L 12.476562 -148.050781 L 12.476562 0 Z M 41.796875 0 "/></g></g></g><g fill="#000000" fill-opacity="1"><g transform="translate(746.512953, 422.281523)"><g><path d="M 42.003906 -121.433594 L 42.003906 -148.050781 L 12.683594 -148.050781 L 12.683594 -121.433594 Z M 41.796875 0 L 41.796875 -107.296875 L 12.476562 -107.296875 L 12.476562 0 Z M 41.796875 0 "/></g></g></g><g fill="#ffffff" fill-opacity="1"><g transform="translate(824.697683, 422.281523)"><g><path d="M 46.785156 0 L 46.785156 -31.191406 L 12.476562 -31.191406 L 12.476562 0 Z M 46.785156 0 "/></g></g></g><g fill="#ffffff" fill-opacity="1"><g transform="translate(907.872772, 422.281523)"><g><path d="M 81.71875 -96.484375 C 74.441406 -105.425781 64.253906 -110 50.527344 -110 C 26.199219 -110 6.652344 -89.207031 6.652344 -54.0625 C 6.652344 -19.546875 25.785156 3.535156 52.816406 3.535156 C 66.125 3.535156 76.730469 -2.078125 84.007812 -13.308594 L 85.046875 0 L 111.039062 0 L 111.039062 -148.050781 L 81.71875 -148.050781 Z M 59.054688 -22.25 C 44.914062 -22.25 34.933594 -34.308594 34.933594 -54.0625 C 34.933594 -73.609375 44.914062 -85.671875 59.054688 -85.671875 C 73.195312 -85.671875 83.175781 -73.402344 83.175781 -54.0625 C 83.175781 -34.726562 73.195312 -22.25 59.054688 -22.25 Z M 59.054688 -22.25 "/></g></g></g><g fill="#ffffff" fill-opacity="1"><g transform="translate(1055.300407, 422.281523)"><g><path d="M 114.574219 -49.90625 C 114.574219 -87.542969 91.285156 -110 59.46875 -110 C 26.617188 -110 6.652344 -85.460938 6.652344 -54.0625 C 6.652344 -21.210938 27.03125 3.535156 62.589844 3.535156 C 86.710938 3.535156 104.59375 -7.695312 111.871094 -30.984375 L 82.757812 -33.0625 C 79.222656 -23.703125 72.15625 -19.128906 61.964844 -19.128906 C 47.410156 -19.128906 38.050781 -28.695312 36.804688 -44.914062 L 114.574219 -44.914062 Z M 60.511719 -88.582031 C 73.816406 -88.582031 82.550781 -79.847656 84.214844 -64.875 L 36.597656 -64.875 C 38.050781 -79.640625 47.203125 -88.582031 60.511719 -88.582031 Z M 60.511719 -88.582031 "/></g></g></g><g fill="#ffffff" fill-opacity="1"><g transform="translate(1200.44076, 422.281523)"><g><path d="M 64.460938 -75.066406 L 54.0625 -28.28125 L 43.042969 -75.066406 L 34.101562 -107.296875 L 3.117188 -107.296875 L 38.46875 0 L 68.410156 0 L 103.761719 -107.296875 L 74.234375 -107.296875 Z M 64.460938 -75.066406 "/></g></g></g></svg>